<svg width="38" height="30" viewBox="0 0 38 30" fill="none" xmlns="http://www.w3.org/2000/svg">
<path d="M36.25 27.5H33.75V10C34.0815 10 34.3995 9.8683 34.6339 9.63388C34.8683 9.39946 35 9.08152 35 8.75C35 8.41848 34.8683 8.10054 34.6339 7.86612C34.3995 7.6317 34.0815 7.5 33.75 7.5H26.25V2.5C26.5815 2.5 26.8995 2.3683 27.1339 2.13388C27.3683 1.89946 27.5 1.58152 27.5 1.25C27.5 0.918479 27.3683 0.600537 27.1339 0.366117C26.8995 0.131696 26.5815 0 26.25 0H3.75C3.41848 0 3.10054 0.131696 2.86612 0.366117C2.6317 0.600537 2.5 0.918479 2.5 1.25C2.5 1.58152 2.6317 1.89946 2.86612 2.13388C3.10054 2.3683 3.41848 2.5 3.75 2.5V27.5H1.25C0.918479 27.5 0.600537 27.6317 0.366116 27.8661C0.131696 28.1005 0 28.4185 0 28.75C0 29.0815 0.131696 29.3995 0.366116 29.6339C0.600537 29.8683 0.918479 30 1.25 30H36.25C36.5815 30 36.8995 29.8683 37.1339 29.6339C37.3683 29.3995 37.5 29.0815 37.5 28.75C37.5 28.4185 37.3683 28.1005 37.1339 27.8661C36.8995 27.6317 36.5815 27.5 36.25 27.5ZM31.25 10V27.5H26.25V10H31.25ZM6.25 2.5H23.75V27.5H20V20C20 19.6685 19.8683 19.3505 19.6339 19.1161C19.3995 18.8817 19.0815 18.75 18.75 18.75H11.25C10.9185 18.75 10.6005 18.8817 10.3661 19.1161C10.1317 19.3505 10 19.6685 10 20V27.5H6.25V2.5ZM17.5 27.5H12.5V21.25H17.5V27.5ZM8.75 7.5C8.75 7.16848 8.8817 6.85054 9.11612 6.61612C9.35054 6.3817 9.66848 6.25 10 6.25H12.5C12.8315 6.25 13.1495 6.3817 13.3839 6.61612C13.6183 6.85054 13.75 7.16848 13.75 7.5C13.75 7.83152 13.6183 8.14946 13.3839 8.38388C13.1495 8.6183 12.8315 8.75 12.5 8.75H10C9.66848 8.75 9.35054 8.6183 9.11612 8.38388C8.8817 8.14946 8.75 7.83152 8.75 7.5ZM16.25 7.5C16.25 7.16848 16.3817 6.85054 16.6161 6.61612C16.8505 6.3817 17.1685 6.25 17.5 6.25H20C20.3315 6.25 20.6495 6.3817 20.8839 6.61612C21.1183 6.85054 21.25 7.16848 21.25 7.5C21.25 7.83152 21.1183 8.14946 20.8839 8.38388C20.6495 8.6183 20.3315 8.75 20 8.75H17.5C17.1685 8.75 16.8505 8.6183 16.6161 8.38388C16.3817 8.14946 16.25 7.83152 16.25 7.5ZM8.75 13.75C8.75 13.4185 8.8817 13.1005 9.11612 12.8661C9.35054 12.6317 9.66848 12.5 10 12.5H12.5C12.8315 12.5 13.1495 12.6317 13.3839 12.8661C13.6183 13.1005 13.75 13.4185 13.75 13.75C13.75 14.0815 13.6183 14.3995 13.3839 14.6339C13.1495 14.8683 12.8315 15 12.5 15H10C9.66848 15 9.35054 14.8683 9.11612 14.6339C8.8817 14.3995 8.75 14.0815 8.75 13.75ZM16.25 13.75C16.25 13.4185 16.3817 13.1005 16.6161 12.8661C16.8505 12.6317 17.1685 12.5 17.5 12.5H20C20.3315 12.5 20.6495 12.6317 20.8839 12.8661C21.1183 13.1005 21.25 13.4185 21.25 13.75C21.25 14.0815 21.1183 14.3995 20.8839 14.6339C20.6495 14.8683 20.3315 15 20 15H17.5C17.1685 15 16.8505 14.8683 16.6161 14.6339C16.3817 14.3995 16.25 14.0815 16.25 13.75Z" fill="#0069C9"/>
</svg>
