<svg width="48" height="48" viewBox="0 0 48 48" fill="none" xmlns="http://www.w3.org/2000/svg">
<rect width="48" height="48" rx="24" fill="white"/>
<path d="M27.7501 33C27.7501 33.1989 27.671 33.3897 27.5304 33.5303C27.3897 33.671 27.199 33.75 27 33.75H21.0001C20.8011 33.75 20.6104 33.671 20.4697 33.5303C20.3291 33.3897 20.2501 33.1989 20.2501 33C20.2501 32.8011 20.3291 32.6103 20.4697 32.4697C20.6104 32.329 20.8011 32.25 21.0001 32.25H27C27.199 32.25 27.3897 32.329 27.5304 32.4697C27.671 32.6103 27.7501 32.8011 27.7501 33ZM32.7985 30C32.6684 30.2292 32.4794 30.4196 32.2512 30.5514C32.0229 30.6833 31.7636 30.7518 31.5 30.75H16.5001C16.2364 30.7496 15.9774 30.6798 15.7494 30.5475C15.5213 30.4151 15.3321 30.225 15.2009 29.9963C15.0697 29.7676 15.0011 29.5083 15.0021 29.2446C15.003 28.9809 15.0735 28.7222 15.2063 28.4944C15.7266 27.5981 16.5001 25.0631 16.5001 21.75C16.5001 19.7609 17.2902 17.8532 18.6968 16.4467C20.1033 15.0402 22.0109 14.25 24.0001 14.25C25.9892 14.25 27.8968 15.0402 29.3034 16.4467C30.7099 17.8532 31.5 19.7609 31.5 21.75C31.5 25.0622 32.2744 27.5981 32.7947 28.4944C32.9289 28.7225 32.9999 28.9822 33.0004 29.2468C33.0009 29.5114 32.9308 29.7714 32.7976 30H32.7985ZM31.5 29.25C30.7754 28.0059 30.0001 25.1297 30.0001 21.75C30.0001 20.1587 29.3679 18.6326 28.2427 17.5074C27.1175 16.3821 25.5913 15.75 24.0001 15.75C22.4088 15.75 20.8826 16.3821 19.7574 17.5074C18.6322 18.6326 18.0001 20.1587 18.0001 21.75C18.0001 25.1306 17.2238 28.0069 16.5001 29.25H31.5Z" fill="black"/>
</svg>
