<svg width="44" height="44" viewBox="0 0 44 44" fill="none" xmlns="http://www.w3.org/2000/svg">
<rect width="44" height="44" rx="20" fill="#E5EDFF"/>
<path opacity="0.4" fill-rule="evenodd" clip-rule="evenodd" d="M22 12.25C14.8 12.25 12.25 14.8 12.25 22C12.25 29.2 14.8 31.75 22 31.75C29.2 31.75 31.75 29.2 31.75 22C31.75 14.8 29.2 12.25 22 12.25Z" fill="#0069C9"/>
<path d="M26.21 20.7402L26.77 20.1102C27.17 19.6602 27.36 19.1102 27.36 18.5602C27.36 17.9202 27.09 17.2702 26.57 16.8102C25.61 15.9602 24.13 16.0502 23.27 17.0102L22.71 17.6402C22.75 17.6602 26.19 20.7102 26.21 20.7402Z" fill="#0069C9"/>
<path d="M18.82 27.2702C19.61 27.2702 20.61 27.0702 21.35 26.2402L25.23 21.8502C25.2 21.8302 21.76 18.7802 21.73 18.7502L17.85 23.1402C16.42 24.7602 17.45 27.0102 17.46 27.0302C17.47 27.0602 17.5 27.0902 17.53 27.1002C17.54 27.1002 18.1 27.2702 18.82 27.2702Z" fill="#0069C9"/>
</svg>
