<svg width="44" height="44" viewBox="0 0 44 44" fill="none" xmlns="http://www.w3.org/2000/svg">
<rect width="44" height="44" rx="20" fill="#F3E8FF"/>
<path opacity="0.4" fill-rule="evenodd" clip-rule="evenodd" d="M21.9595 15.1184C20.2535 14.1034 18.6845 15.3084 17.5385 16.1854C17.0685 16.5454 16.6245 16.8854 16.2875 16.9964C15.8295 17.1464 15.4345 17.1944 15.0515 17.2404C14.3845 17.3194 13.6955 17.4014 12.9405 18.0424C11.7315 19.0694 11.7335 20.6974 11.7355 22.0054C11.7335 23.3124 11.7315 24.9404 12.9415 25.9684C13.6955 26.6084 14.3845 26.6904 15.0515 26.7694C15.4345 26.8154 15.8295 26.8634 16.2875 27.0144C16.6245 27.1254 17.0675 27.4654 17.5375 27.8244C18.3685 28.4614 19.4225 29.2684 20.6045 29.2684C21.0515 29.2684 21.5165 29.1534 21.9945 28.8694C23.3605 27.8984 23.8445 26.1014 23.8445 22.0054C23.8445 17.8544 23.3775 16.1224 21.9595 15.1184Z" fill="#A855F7"/>
<path fill-rule="evenodd" clip-rule="evenodd" d="M29.6131 15.4081C29.3831 15.0641 28.9151 14.9711 28.5721 15.2031C28.2281 15.4331 28.1361 15.8991 28.3671 16.2441C30.6781 19.6911 30.6781 24.3211 28.3671 27.7651C28.1361 28.1091 28.2281 28.5751 28.5721 28.8061C28.7001 28.8921 28.8451 28.9331 28.9891 28.9331C29.2311 28.9331 29.4681 28.8171 29.6131 28.6011C32.2591 24.6581 32.2591 19.3561 29.6131 15.4081Z" fill="#A855F7"/>
<path fill-rule="evenodd" clip-rule="evenodd" d="M26.181 17.6122C25.818 17.8112 25.686 18.2682 25.887 18.6312C27.037 20.7162 27.037 23.3012 25.887 25.3782C25.686 25.7402 25.818 26.1962 26.18 26.3972C26.295 26.4612 26.42 26.4912 26.543 26.4912C26.806 26.4912 27.062 26.3512 27.2 26.1042C28.597 23.5812 28.598 20.4392 27.2 17.9062C26.999 17.5432 26.543 17.4122 26.181 17.6122Z" fill="#A855F7"/>
</svg>
