<svg width="44" height="44" viewBox="0 0 44 44" fill="none" xmlns="http://www.w3.org/2000/svg">
<rect width="44" height="44" rx="20" fill="#FFEDD5"/>
<path d="M22.9429 13.0068V16.2549C22.9429 16.6667 23.275 17.0004 23.686 17.0039V18.5049C23.275 18.5084 22.9429 18.8431 22.9429 19.2549V24.5439C22.9429 24.9558 23.275 25.2895 23.686 25.293V26.7939C23.275 26.7974 22.9429 27.1321 22.9429 27.5439V30.9932C22.7369 30.9952 22.5495 31 22.3335 31C12.7885 31 12.3335 29.3298 12.3335 24.0498C12.3336 23.7729 12.5576 23.5498 12.8335 23.5498C13.3154 23.5498 13.6972 23.392 13.9702 23.0801C14.2132 22.8041 14.3511 22.409 14.3511 21.999C14.3511 21.228 13.8825 20.4492 12.8335 20.4492C12.5576 20.4492 12.3336 20.2261 12.3335 19.9492C12.3335 14.6702 12.7885 13 22.3335 13C22.5495 13 22.7369 13.0058 22.9429 13.0068Z" fill="#F97316"/>
<path opacity="0.4" d="M23.686 26.7939C23.6882 26.7939 23.6904 26.7939 23.6926 26.7939C24.1067 26.7939 24.4426 27.1299 24.4426 27.5439V30.9619C31.9287 30.7041 32.3337 28.9058 32.3337 24.0498C32.3337 23.7729 32.1096 23.5498 31.8337 23.5498C30.7847 23.5498 30.3157 22.772 30.3157 21.999C30.3157 21.228 30.7847 20.4492 31.8337 20.4492C32.1096 20.4492 32.3337 20.2261 32.3337 19.9492C32.3337 15.0942 31.9287 13.2959 24.4426 13.0381V16.2549C24.4426 16.6689 24.1067 17.0049 23.6926 17.0049C23.6904 17.0049 23.6882 17.0049 23.686 17.0049V18.5049C23.6882 18.5049 23.6904 18.5049 23.6926 18.5049C24.1067 18.5049 24.4426 18.8408 24.4426 19.2549V24.5439C24.4426 24.958 24.1067 25.2939 23.6926 25.2939C23.6904 25.2939 23.6882 25.2939 23.686 25.2939V26.7939Z" fill="#F97316"/>
</svg>
