<svg id="whats_app" data-name="whats app" xmlns="http://www.w3.org/2000/svg" width="18.351" height="18.351" viewBox="0 0 18.351 18.351">
  <path id="Path_47" data-name="Path 47" d="M21.676,19.934c-.213-.107-1.254-.619-1.447-.689s-.336-.107-.479.107-.545.689-.672.832-.246.16-.455.057a5.752,5.752,0,0,1-2.881-2.52c-.217-.373.217-.348.619-1.156a.4.4,0,0,0-.016-.373c-.053-.107-.479-1.148-.656-1.574-.168-.41-.344-.352-.475-.361s-.262-.008-.406-.008a.793.793,0,0,0-.566.262,2.385,2.385,0,0,0-.742,1.766,4.137,4.137,0,0,0,.865,2.193,9.45,9.45,0,0,0,3.619,3.2,4.14,4.14,0,0,0,2.545.529,2.167,2.167,0,0,0,1.426-1.008,1.771,1.771,0,0,0,.123-1.008C22.024,20.09,21.885,20.037,21.676,19.934Z" transform="translate(-8.628 -9.071)" fill="#2c2c2c"/>
  <path id="Path_48" data-name="Path 48" d="M18.275,7.866a7.949,7.949,0,0,0-1.71-2.539A7.9,7.9,0,0,0,10.946,3h-.034A7.914,7.914,0,0,0,5.3,5.35,7.811,7.811,0,0,0,3.609,7.881a7.987,7.987,0,0,0,.242,6.648v2.694a.819.819,0,0,0,.817.817h2.7a7.921,7.921,0,0,0,3.545.851h.034a7.911,7.911,0,0,0,3.065-.609,7.811,7.811,0,0,0,2.531-1.688,7.976,7.976,0,0,0,1.733-8.729ZM15.6,15.634a6.561,6.561,0,0,1-4.65,1.911h-.03a6.648,6.648,0,0,1-3.069-.772L7.7,16.693H5.2V14.2l-.079-.151a6.648,6.648,0,0,1-.772-3.069,6.589,6.589,0,0,1,6.569-6.629h.03a6.557,6.557,0,0,1,2.558.515,6.608,6.608,0,0,1,3.53,3.53A6.6,6.6,0,0,1,15.6,15.634Z" transform="translate(-1.77 -1.771)" fill="#2c2c2c"/>
  <path id="Path_49" data-name="Path 49" d="M0,0H18.351V18.351H0Z" fill="none"/>
</svg>
